<svg id="visual" viewBox="0 0 540 960" width="540" height="960" xmlns="http://www.w3.org/2000/svg" xmlns:xlink="http://www.w3.org/1999/xlink" version="1.1"><rect x="0" y="0" width="540" height="960" fill="#232323"></rect><defs><linearGradient id="grad1_0" x1="0%" y1="0%" x2="100%" y2="100%"><stop offset="30%" stop-color="#f16b4e" stop-opacity="1"></stop><stop offset="70%" stop-color="#f16b4e" stop-opacity="1"></stop></linearGradient></defs><defs><linearGradient id="grad1_1" x1="0%" y1="0%" x2="100%" y2="100%"><stop offset="30%" stop-color="#f16b4e" stop-opacity="1"></stop><stop offset="70%" stop-color="#a85340" stop-opacity="1"></stop></linearGradient></defs><defs><linearGradient id="grad1_2" x1="0%" y1="0%" x2="100%" y2="100%"><stop offset="30%" stop-color="#643b31" stop-opacity="1"></stop><stop offset="70%" stop-color="#a85340" stop-opacity="1"></stop></linearGradient></defs><defs><linearGradient id="grad1_3" x1="0%" y1="0%" x2="100%" y2="100%"><stop offset="30%" stop-color="#643b31" stop-opacity="1"></stop><stop offset="70%" stop-color="#232323" stop-opacity="1"></stop></linearGradient></defs><defs><linearGradient id="grad2_0" x1="0%" y1="0%" x2="100%" y2="100%"><stop offset="30%" stop-color="#f16b4e" stop-opacity="1"></stop><stop offset="70%" stop-color="#f16b4e" stop-opacity="1"></stop></linearGradient></defs><defs><linearGradient id="grad2_1" x1="0%" y1="0%" x2="100%" y2="100%"><stop offset="30%" stop-color="#a85340" stop-opacity="1"></stop><stop offset="70%" stop-color="#f16b4e" stop-opacity="1"></stop></linearGradient></defs><defs><linearGradient id="grad2_2" x1="0%" y1="0%" x2="100%" y2="100%"><stop offset="30%" stop-color="#a85340" stop-opacity="1"></stop><stop offset="70%" stop-color="#643b31" stop-opacity="1"></stop></linearGradient></defs><defs><linearGradient id="grad2_3" x1="0%" y1="0%" x2="100%" y2="100%"><stop offset="30%" stop-color="#232323" stop-opacity="1"></stop><stop offset="70%" stop-color="#643b31" stop-opacity="1"></stop></linearGradient></defs><g transform="translate(540, 0)"><path d="M0 324C-35.2 306.3 -70.3 288.5 -114.8 277.2C-159.3 265.8 -213.1 260.8 -229.1 229.1C-245.1 197.4 -223.3 139.1 -232.8 96.4C-242.3 53.8 -283.2 26.9 -324 0L0 0Z" fill="#432f2a"></path><path d="M0 243C-26.4 229.7 -52.7 216.4 -86.1 207.9C-119.5 199.3 -159.8 195.6 -171.8 171.8C-183.8 148.1 -167.5 104.3 -174.6 72.3C-181.7 40.4 -212.4 20.2 -243 0L0 0Z" fill="#854738"></path><path d="M0 162C-17.6 153.1 -35.2 144.3 -57.4 138.6C-79.6 132.9 -106.5 130.4 -114.6 114.6C-122.6 98.7 -111.7 69.5 -116.4 48.2C-121.2 26.9 -141.6 13.5 -162 0L0 0Z" fill="#cc5f47"></path><path d="M0 81C-8.8 76.6 -17.6 72.1 -28.7 69.3C-39.8 66.4 -53.3 65.2 -57.3 57.3C-61.3 49.4 -55.8 34.8 -58.2 24.1C-60.6 13.5 -70.8 6.7 -81 0L0 0Z" fill="#f16b4e"></path></g><g transform="translate(0, 960)"><path d="M0 -324C33.8 -295.1 67.6 -266.2 103.7 -250.4C139.8 -234.5 178.1 -231.6 213.5 -213.5C249 -195.5 281.4 -162.1 299.3 -124C317.3 -85.9 320.6 -42.9 324 0L0 0Z" fill="#432f2a"></path><path d="M0 -243C25.4 -221.3 50.7 -199.7 77.8 -187.8C104.8 -175.9 133.6 -173.7 160.2 -160.2C186.7 -146.6 211.1 -121.6 224.5 -93C237.9 -64.4 240.5 -32.2 243 0L0 0Z" fill="#854738"></path><path d="M0 -162C16.9 -147.6 33.8 -133.1 51.9 -125.2C69.9 -117.3 89.1 -115.8 106.8 -106.8C124.5 -97.7 140.7 -81.1 149.7 -62C158.6 -42.9 160.3 -21.5 162 0L0 0Z" fill="#cc5f47"></path><path d="M0 -81C8.5 -73.8 16.9 -66.6 25.9 -62.6C34.9 -58.6 44.5 -57.9 53.4 -53.4C62.2 -48.9 70.4 -40.5 74.8 -31C79.3 -21.5 80.2 -10.7 81 0L0 0Z" fill="#f16b4e"></path></g></svg>