<svg id="visual" viewBox="0 0 1536 800" width="1536" height="800" xmlns="http://www.w3.org/2000/svg" xmlns:xlink="http://www.w3.org/1999/xlink" version="1.1"><rect x="0" y="0" width="1536" height="800" fill="#232323"></rect><defs><linearGradient id="grad1_0" x1="47.9%" y1="0%" x2="100%" y2="100%"><stop offset="11.600000000000001%" stop-color="#f16b4e" stop-opacity="1"></stop><stop offset="88.4%" stop-color="#f16b4e" stop-opacity="1"></stop></linearGradient></defs><defs><linearGradient id="grad1_1" x1="47.9%" y1="0%" x2="100%" y2="100%"><stop offset="11.600000000000001%" stop-color="#f16b4e" stop-opacity="1"></stop><stop offset="88.4%" stop-color="#ba5943" stop-opacity="1"></stop></linearGradient></defs><defs><linearGradient id="grad1_2" x1="47.9%" y1="0%" x2="100%" y2="100%"><stop offset="11.600000000000001%" stop-color="#854738" stop-opacity="1"></stop><stop offset="88.4%" stop-color="#ba5943" stop-opacity="1"></stop></linearGradient></defs><defs><linearGradient id="grad1_3" x1="47.9%" y1="0%" x2="100%" y2="100%"><stop offset="11.600000000000001%" stop-color="#854738" stop-opacity="1"></stop><stop offset="88.4%" stop-color="#53352e" stop-opacity="1"></stop></linearGradient></defs><defs><linearGradient id="grad1_4" x1="47.9%" y1="0%" x2="100%" y2="100%"><stop offset="11.600000000000001%" stop-color="#232323" stop-opacity="1"></stop><stop offset="88.4%" stop-color="#53352e" stop-opacity="1"></stop></linearGradient></defs><defs><linearGradient id="grad2_0" x1="0%" y1="0%" x2="52.1%" y2="100%"><stop offset="11.600000000000001%" stop-color="#f16b4e" stop-opacity="1"></stop><stop offset="88.4%" stop-color="#f16b4e" stop-opacity="1"></stop></linearGradient></defs><defs><linearGradient id="grad2_1" x1="0%" y1="0%" x2="52.1%" y2="100%"><stop offset="11.600000000000001%" stop-color="#ba5943" stop-opacity="1"></stop><stop offset="88.4%" stop-color="#f16b4e" stop-opacity="1"></stop></linearGradient></defs><defs><linearGradient id="grad2_2" x1="0%" y1="0%" x2="52.1%" y2="100%"><stop offset="11.600000000000001%" stop-color="#ba5943" stop-opacity="1"></stop><stop offset="88.4%" stop-color="#854738" stop-opacity="1"></stop></linearGradient></defs><defs><linearGradient id="grad2_3" x1="0%" y1="0%" x2="52.1%" y2="100%"><stop offset="11.600000000000001%" stop-color="#53352e" stop-opacity="1"></stop><stop offset="88.4%" stop-color="#854738" stop-opacity="1"></stop></linearGradient></defs><defs><linearGradient id="grad2_4" x1="0%" y1="0%" x2="52.1%" y2="100%"><stop offset="11.600000000000001%" stop-color="#53352e" stop-opacity="1"></stop><stop offset="88.4%" stop-color="#232323" stop-opacity="1"></stop></linearGradient></defs><g transform="translate(1536, 0)"><path d="M0 600C-63.6 548.1 -127.2 496.2 -192.9 465.6C-258.6 435 -326.4 425.7 -391.7 391.7C-457.1 357.7 -520 299 -554.3 229.6C-588.6 160.2 -594.3 80.1 -600 0L0 0Z" fill="#3b2c28"></path><path d="M0 480C-50.9 438.5 -101.7 397 -154.3 372.5C-206.9 348 -261.1 340.6 -313.4 313.4C-365.7 286.2 -416 239.2 -443.5 183.7C-470.9 128.2 -475.5 64.1 -480 0L0 0Z" fill="#6c3e33"></path><path d="M0 360C-38.2 328.9 -76.3 297.7 -115.7 279.4C-155.1 261 -195.8 255.4 -235 235C-274.3 214.6 -312 179.4 -332.6 137.8C-353.2 96.1 -356.6 48.1 -360 0L0 0Z" fill="#9f503e"></path><path d="M0 240C-25.4 219.2 -50.9 198.5 -77.1 186.3C-103.4 174 -130.5 170.3 -156.7 156.7C-182.8 143.1 -208 119.6 -221.7 91.8C-235.5 64.1 -237.7 32 -240 0L0 0Z" fill="#d56249"></path><path d="M0 120C-12.7 109.6 -25.4 99.2 -38.6 93.1C-51.7 87 -65.3 85.1 -78.3 78.3C-91.4 71.5 -104 59.8 -110.9 45.9C-117.7 32 -118.9 16 -120 0L0 0Z" fill="#f16b4e"></path></g><g transform="translate(0, 800)"><path d="M0 -600C61 -551.3 122 -502.6 199.4 -481.3C276.7 -460.1 370.5 -466.3 424.3 -424.3C478.1 -382.2 492 -291.9 514.6 -213.2C537.2 -134.4 568.6 -67.2 600 0L0 0Z" fill="#3b2c28"></path><path d="M0 -480C48.8 -441 97.6 -402.1 159.5 -385.1C221.4 -368.1 296.4 -373 339.4 -339.4C382.5 -305.8 393.6 -233.5 411.7 -170.5C429.8 -107.5 454.9 -53.8 480 0L0 0Z" fill="#6c3e33"></path><path d="M0 -360C36.6 -330.8 73.2 -301.6 119.6 -288.8C166 -276.1 222.3 -279.8 254.6 -254.6C286.8 -229.3 295.2 -175.1 308.8 -127.9C322.3 -80.6 341.2 -40.3 360 0L0 0Z" fill="#9f503e"></path><path d="M0 -240C24.4 -220.5 48.8 -201 79.8 -192.5C110.7 -184 148.2 -186.5 169.7 -169.7C191.2 -152.9 196.8 -116.8 205.8 -85.3C214.9 -53.8 227.4 -26.9 240 0L0 0Z" fill="#d56249"></path><path d="M0 -120C12.2 -110.3 24.4 -100.5 39.9 -96.3C55.3 -92 74.1 -93.3 84.9 -84.9C95.6 -76.4 98.4 -58.4 102.9 -42.6C107.4 -26.9 113.7 -13.4 120 0L0 0Z" fill="#f16b4e"></path></g></svg>