<svg id="visual" viewBox="0 0 1536 800" width="1536" height="800" xmlns="http://www.w3.org/2000/svg" xmlns:xlink="http://www.w3.org/1999/xlink" version="1.1"><rect x="0" y="0" width="1536" height="800" fill="#232323"></rect><defs><linearGradient id="grad1_0" x1="47.9%" y1="100%" x2="100%" y2="0%"><stop offset="11.600000000000001%" stop-color="#f16b4e" stop-opacity="1"></stop><stop offset="88.4%" stop-color="#f16b4e" stop-opacity="1"></stop></linearGradient></defs><defs><linearGradient id="grad1_1" x1="47.9%" y1="100%" x2="100%" y2="0%"><stop offset="11.600000000000001%" stop-color="#f16b4e" stop-opacity="1"></stop><stop offset="88.4%" stop-color="#ba5943" stop-opacity="1"></stop></linearGradient></defs><defs><linearGradient id="grad1_2" x1="47.9%" y1="100%" x2="100%" y2="0%"><stop offset="11.600000000000001%" stop-color="#854738" stop-opacity="1"></stop><stop offset="88.4%" stop-color="#ba5943" stop-opacity="1"></stop></linearGradient></defs><defs><linearGradient id="grad1_3" x1="47.9%" y1="100%" x2="100%" y2="0%"><stop offset="11.600000000000001%" stop-color="#854738" stop-opacity="1"></stop><stop offset="88.4%" stop-color="#53352e" stop-opacity="1"></stop></linearGradient></defs><defs><linearGradient id="grad1_4" x1="47.9%" y1="100%" x2="100%" y2="0%"><stop offset="11.600000000000001%" stop-color="#232323" stop-opacity="1"></stop><stop offset="88.4%" stop-color="#53352e" stop-opacity="1"></stop></linearGradient></defs><defs><linearGradient id="grad2_0" x1="0%" y1="100%" x2="52.1%" y2="0%"><stop offset="11.600000000000001%" stop-color="#f16b4e" stop-opacity="1"></stop><stop offset="88.4%" stop-color="#f16b4e" stop-opacity="1"></stop></linearGradient></defs><defs><linearGradient id="grad2_1" x1="0%" y1="100%" x2="52.1%" y2="0%"><stop offset="11.600000000000001%" stop-color="#ba5943" stop-opacity="1"></stop><stop offset="88.4%" stop-color="#f16b4e" stop-opacity="1"></stop></linearGradient></defs><defs><linearGradient id="grad2_2" x1="0%" y1="100%" x2="52.1%" y2="0%"><stop offset="11.600000000000001%" stop-color="#ba5943" stop-opacity="1"></stop><stop offset="88.4%" stop-color="#854738" stop-opacity="1"></stop></linearGradient></defs><defs><linearGradient id="grad2_3" x1="0%" y1="100%" x2="52.1%" y2="0%"><stop offset="11.600000000000001%" stop-color="#53352e" stop-opacity="1"></stop><stop offset="88.4%" stop-color="#854738" stop-opacity="1"></stop></linearGradient></defs><defs><linearGradient id="grad2_4" x1="0%" y1="100%" x2="52.1%" y2="0%"><stop offset="11.600000000000001%" stop-color="#53352e" stop-opacity="1"></stop><stop offset="88.4%" stop-color="#232323" stop-opacity="1"></stop></linearGradient></defs><g transform="translate(1536, 800)"><path d="M-600 0C-549.6 -59 -499.3 -118 -479.5 -198.6C-459.7 -279.3 -470.5 -381.6 -424.3 -424.3C-378 -466.9 -274.6 -450 -194.4 -469.3C-114.2 -488.7 -57.1 -544.3 0 -600L0 0Z" fill="#3b2c28"></path><path d="M-480 0C-439.7 -47.2 -399.4 -94.4 -383.6 -158.9C-367.8 -223.4 -376.4 -305.3 -339.4 -339.4C-302.4 -373.6 -219.7 -360 -155.5 -375.5C-91.3 -390.9 -45.7 -435.5 0 -480L0 0Z" fill="#6c3e33"></path><path d="M-360 0C-329.8 -35.4 -299.6 -70.8 -287.7 -119.2C-275.8 -167.6 -282.3 -229 -254.6 -254.6C-226.8 -280.2 -164.8 -270 -116.6 -281.6C-68.5 -293.2 -34.3 -326.6 0 -360L0 0Z" fill="#9f503e"></path><path d="M-240 0C-219.9 -23.6 -199.7 -47.2 -191.8 -79.4C-183.9 -111.7 -188.2 -152.6 -169.7 -169.7C-151.2 -186.8 -109.9 -180 -77.8 -187.7C-45.7 -195.5 -22.8 -217.7 0 -240L0 0Z" fill="#d56249"></path><path d="M-120 0C-109.9 -11.8 -99.9 -23.6 -95.9 -39.7C-91.9 -55.9 -94.1 -76.3 -84.9 -84.9C-75.6 -93.4 -54.9 -90 -38.9 -93.9C-22.8 -97.7 -11.4 -108.9 0 -120L0 0Z" fill="#f16b4e"></path></g><g transform="translate(0, 0)"><path d="M600 0C558.1 64.7 516.3 129.3 493.4 204.4C470.4 279.4 466.4 364.8 424.3 424.3C382.1 483.8 301.7 517.3 224.6 542.3C147.6 567.3 73.8 583.6 0 600L0 0Z" fill="#3b2c28"></path><path d="M480 0C446.5 51.7 413 103.5 394.7 163.5C376.3 223.5 373.2 291.8 339.4 339.4C305.7 387 241.4 413.9 179.7 433.9C118 453.8 59 466.9 0 480L0 0Z" fill="#6c3e33"></path><path d="M360 0C334.9 38.8 309.8 77.6 296 122.6C282.3 167.6 279.9 218.9 254.6 254.6C229.3 290.3 181 310.4 134.8 325.4C88.5 340.4 44.3 350.2 0 360L0 0Z" fill="#9f503e"></path><path d="M240 0C223.3 25.9 206.5 51.7 197.3 81.7C188.2 111.8 186.6 145.9 169.7 169.7C152.8 193.5 120.7 206.9 89.9 216.9C59 226.9 29.5 233.5 0 240L0 0Z" fill="#d56249"></path><path d="M120 0C111.6 12.9 103.3 25.9 98.7 40.9C94.1 55.9 93.3 73 84.9 84.9C76.4 96.8 60.3 103.5 44.9 108.5C29.5 113.5 14.8 116.7 0 120L0 0Z" fill="#f16b4e"></path></g></svg>